<svg xmlns="http://www.w3.org/2000/svg" style="display: none;">
  
    <symbol id="dot-dotblock" viewBox="0 0 512 512">
      <path d="m57 224l0 66-13 12-44 0 0-90 44 0z m-17 5l-23 0 0 56 23 0z m82 73l-57 0 0-90 56 0 0 90z m-18-17l0-56-22 0 0 56z m82-56l-20 0 0 73-17 0 0-73-20 0 0-17 57 0z m65 35l0 38-57 0 0-90 57 0 0 38-7 7z m-17-35l-22 0 0 19 22 0z m0 37l-22 0 0 19 22 0z m82 19l0 17-57 0 0-90 17 0 0 73z m65 17l-57 0 0-90 57 0z m-18-17l0-56-22 0 0 56z m66-44l0-12-23 0 0 56 22 0 0-12 17 0 0 29-56 0 0-90 57 0 0 29z m75 16l7 7 0 37-17 0 0-35-22 0 0 36-18 0 0-90 18 0 0 36 22 0 0-36 17 0 0 37z"/>
    </symbol>
  
</svg>
